<svg version="1.0" xmlns="http://www.w3.org/2000/svg" viewBox="0 0 1024 1024"><path d="M774.5 149c-11.3.9-14.1 1.3-32.9 5.7-43.5 9.9-82.7 35.9-104.5 69.3-6.3 9.6-16.1 28.4-16.1 30.9 0 1-.4 2.1-.9 2.6-.4.6-2.1 6.2-3.5 12.5-1.5 6.3-3.2 13.1-3.7 15-1.1 3.7-2.6 47-1.6 47 .3 0 1.9-2.5 3.7-5.6 10.8-19.2 39.1-50 62.5-68 20.5-15.8 33.8-24.8 48-32.4 4.4-2.3 9.8-5.2 12-6.4s6.7-3.2 10-4.5 7.8-3.2 10-4.1c7.4-3.2 16.5-6.3 17.1-5.8.3.3-2.3 2.3-5.8 4.4-9.4 5.7-38.1 25.7-47.7 33.3-23.4 18.4-41.1 35.8-58.8 57.8-12 15-29.4 45.3-27 47.3.6.5 3.7 2.9 6.7 5.3 6.4 5.1 13.8 13.5 19 21.6 3.3 5.1 10 18.3 10 19.7 0 .3.7 2 1.5 3.7.7 1.8 2.4 7.2 3.7 12.2 1.9 7.8 2.2 11.6 2.2 29 0 20.5-1.2 29.8-6 46.5-4.1 14.2-11.9 30.5-19.3 40.5-5.6 7.6-5.8 7.9-2.5 6.2 3.7-2 12.4-9.4 17.2-14.8q23.1-25.65 31.8-60.9c2.4-9.5 2.7-44.7.6-52-5.4-17.8-7.6-22.8-15.2-33.9-3.9-5.8-12-13.9-15.8-16-3.9-2.1-2.4-2.9 7.1-3.4 15.3-.9 31.9-3.8 44-7.8 3.1-1 6.2-1.9 6.7-1.9 2.3 0 25.2-10.8 33.4-15.8 14.3-8.6 23.3-15.7 36.1-28.6 18.5-18.5 29.5-33.6 40.9-56.2 14.3-28.3 20.9-50.6 23.3-78.4l.5-6.5-4.8-1.7c-4.7-1.6-11.7-3.1-23.4-4.8-8.5-1.3-46.2-2-58.5-1M431 186c-4.7.6-10.7 1.8-13.5 2.8-5.8 2.1-5.9 2.5-3.2 15.2 5.1 24.6 20.2 53.2 37.6 71.3 14.3 14.8 28.6 23.1 49.1 28.2 12 3 58 7.7 58 6 0-2.1-9.2-17.3-14.9-24.5-5.7-7.3-20.9-23.3-25.2-26.5-4.1-3.1-17.5-13.9-17.9-14.4-.3-.4-3.4-2.9-6.8-5.6-5.9-4.6-6.9-7.2-1.9-4.7 1.2.6 6.3 3 11.2 5.3 28.9 13.4 62.2 43.3 81.5 73.1 2.5 3.8 4.8 6.8 5.2 6.8s.8-5.7.8-12.7c0-41.4-17.9-74.5-53.3-98.7-11.4-7.8-30.6-16.1-42.7-18.6-3-.6-7.5-1.5-10-2.1-6.4-1.3-43.9-1.9-54-.9"/><path d="M390 308.1c-5.2.4-15.8 1.3-23.5 1.9-20.3 1.5-48.6 5.5-61.5 8.6-24.3 5.7-27.9 7.1-32.3 12.4-1.5 1.7-3.1 4.8-3.7 7-.7 2.6-.9 84.7-.8 259.7l.3 255.8 2.2 4.1c2.9 5.5 8.4 10.1 13.5 11.4 2.4.7 6.3 1.8 8.8 2.5 7.2 2.1 13.8 3.4 25 5.1 20.7 3.1 31.5 4.3 70 7.4 16 1.3 73.3 1.3 87 0 45.4-4.3 65.2-7.3 87.5-13.4 13.9-3.8 17.8-5 27-8.3 32.1-11.5 58.4-28 79.3-49.8 19.9-20.7 31.6-41.6 40.6-72.5 7-24.1 7-65.5 0-88.5-6-19.6-14-34.6-26.3-49.2-9.1-10.8-27.9-24.7-41.9-30.9-3.1-1.4-6.6-2.9-7.7-3.4-4.8-2.2-13.7-5-22.5-6.9-5.2-1.2-11.5-2.7-14-3.3-2.5-.5-8.9-1.3-14.3-1.6-9.4-.5-12.8-1.5-9-2.8 1-.4 5.6-2.4 10.3-4.6 30.9-14.5 55.5-41.8 65-72 4.1-13.2 5.2-19.7 5.7-33.3.6-16.9-1.2-30.2-5.7-42.2-10.1-27.1-32-48.7-65.5-64.7-5.5-2.6-10.8-5.2-11.7-5.7-1-.5-2.3-.9-3-.9s-2.6-.7-4.2-1.5c-1.6-.9-4.6-2-6.5-2.5-2-.5-6.7-1.9-10.6-3.1-3.8-1.1-9.7-2.7-13-3.4-13.4-2.9-16.3-3.5-22-4.6-32.8-6.3-90.6-9.5-122.5-6.8m83.7 66.9c21.7 3.1 32.1 7.6 42.4 18.1 6.8 6.9 10.9 15.2 13.3 27.1 3.4 16.5-.3 39.2-9.2 55.8-4.8 9-8 13.3-17 22.4-16.3 16.7-35.6 26.2-64.8 32-6.7 1.3-30.7 3.5-39.1 3.6H397V376.3l11.3-1.5c17.3-2.3 48.5-2.2 65.4.2m12.5 220.3c22.4 3.9 44.3 13.6 56.9 25.4 12.2 11.5 17.5 19.6 22.3 34.5 5.4 16.3 6.5 30.9 3.7 47.9-2.9 17.6-7 28.6-15.2 41-17.9 26.8-48 41.9-95.9 48-9.5 1.2-57.8.9-59.7-.4-1-.6-1.3-21.1-1.3-96.6v-95.8l5.3-1.2c2.9-.6 11.3-1.8 18.7-2.6 7.3-.8 13.6-1.8 13.9-2.1 1.2-1.2 41.8.3 51.3 1.9"/></svg>
